<?xml version="1.0" encoding="UTF-8" standalone="no"?>
<!-- Created with Inkscape (http://www.inkscape.org/) -->

<svg
   xmlns:dc="http://purl.org/dc/elements/1.1/"
   xmlns:cc="http://creativecommons.org/ns#"
   xmlns:rdf="http://www.w3.org/1999/02/22-rdf-syntax-ns#"
   xmlns:svg="http://www.w3.org/2000/svg"
   xmlns="http://www.w3.org/2000/svg"
   xmlns:xlink="http://www.w3.org/1999/xlink"
   xmlns:sodipodi="http://sodipodi.sourceforge.net/DTD/sodipodi-0.dtd"
   xmlns:inkscape="http://www.inkscape.org/namespaces/inkscape"
   width="48px"
   height="48px"
   id="svg3397"
   sodipodi:version="0.32"
   inkscape:version="0.92.4 (5da689c313, 2019-01-14)"
   sodipodi:docname="coin_1.svg"
   inkscape:output_extension="org.inkscape.output.svg.inkscape"
   sodipodi:modified="true"
   version="1.1">
  <defs
     id="defs3399">
    <radialGradient
       inkscape:collect="always"
       xlink:href="#linearGradient3809"
       id="radialGradient3815"
       cx="20.216284"
       cy="22.363384"
       fx="20.216284"
       fy="22.363384"
       r="5.4429703"
       gradientUnits="userSpaceOnUse"
       gradientTransform="matrix(1.888889,0,0,1.8888887,-19.108431,-21.01696)" />
    <radialGradient
       inkscape:collect="always"
       xlink:href="#linearGradient3809"
       id="radialGradient2887"
       gradientUnits="userSpaceOnUse"
       gradientTransform="matrix(1.888889,0,0,1.8888887,-19.108431,-21.01696)"
       cx="20.216284"
       cy="22.363384"
       fx="20.216284"
       fy="22.363384"
       r="5.4429703" />
    <radialGradient
       inkscape:collect="always"
       xlink:href="#linearGradient3809"
       id="radialGradient2885"
       gradientUnits="userSpaceOnUse"
       gradientTransform="matrix(1.888889,0,0,1.8888887,-19.108431,-21.01696)"
       cx="20.216284"
       cy="22.363384"
       fx="20.216284"
       fy="22.363384"
       r="5.4429703" />
    <radialGradient
       inkscape:collect="always"
       xlink:href="#linearGradient3809"
       id="radialGradient3874"
       gradientUnits="userSpaceOnUse"
       gradientTransform="matrix(1.888889,0,0,1.8888887,-19.108431,-21.01696)"
       cx="20.216284"
       cy="22.363384"
       fx="20.216284"
       fy="22.363384"
       r="5.4429703" />
    <linearGradient
       id="linearGradient3809">
      <stop
         style="stop-color:#646464;stop-opacity:1;"
         offset="0"
         id="stop3811" />
      <stop
         style="stop-color:#ffffff;stop-opacity:1;"
         offset="1"
         id="stop3813" />
    </linearGradient>
    <radialGradient
       inkscape:collect="always"
       xlink:href="#linearGradient3809"
       id="radialGradient2883"
       gradientUnits="userSpaceOnUse"
       gradientTransform="matrix(1.888889,0,0,1.8888887,-19.108431,-21.01696)"
       cx="20.216284"
       cy="22.363384"
       fx="20.216284"
       fy="22.363384"
       r="5.4429703" />
    <linearGradient
       id="linearGradient3543">
      <stop
         id="stop3545"
         offset="0"
         style="stop-color:#000000;stop-opacity:1;" />
      <stop
         id="stop3547"
         offset="1"
         style="stop-color:#000000;stop-opacity:0;" />
    </linearGradient>
    <radialGradient
       inkscape:collect="always"
       xlink:href="#linearGradient3543"
       id="radialGradient3789"
       gradientUnits="userSpaceOnUse"
       gradientTransform="matrix(-2.1950677,0.2897038,0.1252845,0.9492732,134.56374,33.524959)"
       cx="31.115608"
       cy="-0.82402778"
       fx="31.115608"
       fy="-0.82402778"
       r="21.064173" />
    <filter
       inkscape:collect="always"
       id="filter3782">
      <feGaussianBlur
         inkscape:collect="always"
         stdDeviation="0.8"
         id="feGaussianBlur3784" />
    </filter>
    <linearGradient
       id="linearGradient3511">
      <stop
         style="stop-color:#ffffff;stop-opacity:1;"
         offset="0"
         id="stop3513" />
      <stop
         style="stop-color:#ffffff;stop-opacity:0;"
         offset="1"
         id="stop3515" />
    </linearGradient>
    <radialGradient
       inkscape:collect="always"
       xlink:href="#linearGradient3511"
       id="radialGradient3764"
       gradientUnits="userSpaceOnUse"
       gradientTransform="matrix(2.1882745,-0.3372023,-0.1722663,-1.1179222,3.35957,46.985677)"
       cx="29.107101"
       cy="28.660641"
       fx="29.107101"
       fy="28.660641"
       r="21.064173" />
    <linearGradient
       id="linearGradient3167">
      <stop
         style="stop-color:#8b0000;stop-opacity:1;"
         offset="0"
         id="stop3169" />
      <stop
         style="stop-color:#e00000;stop-opacity:1;"
         offset="1"
         id="stop3171" />
    </linearGradient>
    <radialGradient
       inkscape:collect="always"
       xlink:href="#linearGradient5407"
       id="radialGradient3553"
       gradientUnits="userSpaceOnUse"
       gradientTransform="matrix(0.8302886,0,0,0.6482567,-24.46156,16.409187)"
       cx="33.331676"
       cy="29.332272"
       fx="33.331676"
       fy="29.332272"
       r="21.064173" />
    <filter
       inkscape:collect="always"
       id="filter3605">
      <feGaussianBlur
         inkscape:collect="always"
         stdDeviation="2"
         id="feGaussianBlur3607" />
    </filter>
    <linearGradient
       id="linearGradient6587">
      <stop
         style="stop-color:#b0b0b0;stop-opacity:1;"
         offset="0"
         id="stop6589" />
      <stop
         style="stop-color:#b0b0b0;stop-opacity:0;"
         offset="1"
         id="stop6591" />
    </linearGradient>
    <linearGradient
       id="linearGradient5407">
      <stop
         style="stop-color:#ffffff;stop-opacity:1;"
         offset="0"
         id="stop5409" />
      <stop
         style="stop-color:#b0b0b0;stop-opacity:1;"
         offset="1"
         id="stop5411" />
    </linearGradient>
    <linearGradient
       id="linearGradient5379">
      <stop
         style="stop-color:#ffffff;stop-opacity:1;"
         offset="0"
         id="stop5381" />
      <stop
         style="stop-color:#ffffff;stop-opacity:0;"
         offset="1"
         id="stop5383" />
    </linearGradient>
    <linearGradient
       id="linearGradient5373">
      <stop
         style="stop-color:#ffffff;stop-opacity:1;"
         offset="0"
         id="stop5375" />
      <stop
         style="stop-color:#ffffff;stop-opacity:0;"
         offset="1"
         id="stop5377" />
    </linearGradient>
    <linearGradient
       id="linearGradient5367">
      <stop
         id="stop5369"
         offset="0"
         style="stop-color:#000000;stop-opacity:1;" />
      <stop
         id="stop5371"
         offset="1"
         style="stop-color:#000000;stop-opacity:0" />
    </linearGradient>
    <linearGradient
       id="linearGradient4378">
      <stop
         style="stop-color:#000000;stop-opacity:1;"
         offset="0"
         id="stop4380" />
      <stop
         style="stop-color:#000000;stop-opacity:0;"
         offset="1"
         id="stop4382" />
    </linearGradient>
    <linearGradient
       inkscape:collect="always"
       xlink:href="#linearGradient5373"
       id="linearGradient4396"
       gradientUnits="userSpaceOnUse"
       x1="32.791939"
       y1="33.640415"
       x2="23.765287"
       y2="23.682884" />
    <linearGradient
       inkscape:collect="always"
       xlink:href="#linearGradient5373"
       id="linearGradient5428"
       gradientUnits="userSpaceOnUse"
       gradientTransform="matrix(1.1715481,0,0,-1.1715481,-6.0251041,50.343096)"
       x1="14.763515"
       y1="32.834316"
       x2="21.3806"
       y2="25.9" />
    <linearGradient
       inkscape:collect="always"
       xlink:href="#linearGradient5367"
       id="linearGradient5432"
       gradientUnits="userSpaceOnUse"
       gradientTransform="matrix(1.1715481,0,0,-1.1715481,-6.0251041,50.343096)"
       x1="39.285713"
       y1="10.118872"
       x2="32.070221"
       y2="18.550886" />
    <linearGradient
       inkscape:collect="always"
       xlink:href="#linearGradient5373"
       id="linearGradient5436"
       gradientUnits="userSpaceOnUse"
       spreadMethod="pad"
       x1="2.6286039"
       y1="-3.3339052"
       x2="39.760845"
       y2="33.798336" />
    <linearGradient
       inkscape:collect="always"
       xlink:href="#linearGradient4378"
       id="linearGradient5438"
       gradientUnits="userSpaceOnUse"
       x1="5.8061099"
       y1="5.5749507"
       x2="19.302588"
       y2="19.071428" />
    <linearGradient
       inkscape:collect="always"
       xlink:href="#linearGradient5407"
       id="linearGradient7563"
       x1="2.756119"
       y1="11.170771"
       x2="36.892784"
       y2="11.170771"
       gradientUnits="userSpaceOnUse" />
    <filter
       inkscape:collect="always"
       id="filter7711">
      <feGaussianBlur
         inkscape:collect="always"
         stdDeviation="0.37939878"
         id="feGaussianBlur7713" />
    </filter>
  </defs>
  <sodipodi:namedview
     id="base"
     pagecolor="#ffffff"
     bordercolor="#666666"
     borderopacity="1.0"
     inkscape:pageopacity="0.0"
     inkscape:pageshadow="2"
     inkscape:zoom="8.4791667"
     inkscape:cx="3.7149878"
     inkscape:cy="24"
     inkscape:current-layer="layer14"
     showgrid="true"
     inkscape:grid-bbox="true"
     inkscape:document-units="px"
     inkscape:window-width="1920"
     inkscape:window-height="1025"
     inkscape:window-x="0"
     inkscape:window-y="27"
     inkscape:window-maximized="1" />
  <metadata
     id="metadata3402">
    <rdf:RDF>
      <cc:Work
         rdf:about="">
        <dc:format>image/svg+xml</dc:format>
        <dc:type
           rdf:resource="http://purl.org/dc/dcmitype/StillImage" />
        <dc:title></dc:title>
      </cc:Work>
    </rdf:RDF>
  </metadata>
  <g
     inkscape:groupmode="layer"
     id="layer10"
     inkscape:label="Drop Shadow" />
  <g
     inkscape:groupmode="layer"
     id="layer3"
     inkscape:label="Base"
     style="display:inline" />
  <g
     inkscape:groupmode="layer"
     id="layer2"
     inkscape:label="Outer Rim"
     style="display:inline" />
  <g
     id="layer1"
     inkscape:label="Inner Base"
     inkscape:groupmode="layer"
     style="display:inline" />
  <g
     inkscape:groupmode="layer"
     id="layer13"
     inkscape:label="Tails Text" />
  <g
     inkscape:groupmode="layer"
     id="layer14"
     inkscape:label="Die"
     style="display:inline">
    <g
       id="g917"
       transform="matrix(1.1717667,0,0,1.2,0.77049309,2.4000001e-7)">
      <circle
         transform="matrix(1.1715481,0,0,1.1715481,-6.0251041,-2.3430963)"
         id="path3405"
         style="color:#000000;display:inline;overflow:visible;visibility:visible;opacity:1;fill:#b0b0b0;fill-opacity:1;fill-rule:evenodd;stroke:none;stroke-width:1.65350902;stroke-linecap:round;stroke-linejoin:round;stroke-miterlimit:4;stroke-dasharray:none;stroke-dashoffset:0;stroke-opacity:1;marker:none;marker-start:none;marker-mid:none;marker-end:none;enable-background:accumulate"
         cx="22.214285"
         cy="19.071428"
         r="17.071428" />
      <path
         id="path5421"
         d="M 20,0 C 8.9600003,0 0,8.9599996 0,20 0,31.04 8.9599995,39.999999 20,40 31.04,40 39.999999,31.039999 40,20 40,8.9600003 31.039999,0 20,0 Z m 0,2.03125 C 29.916651,2.0312501 37.96875,10.083349 37.96875,20 37.968751,29.916651 29.916651,37.96875 20,37.96875 10.08335,37.96875 2.03125,29.916651 2.03125,20 2.03125,10.08335 10.083349,2.03125 20,2.03125 Z"
         style="color:#000000;display:inline;overflow:visible;visibility:visible;opacity:1;fill:url(#linearGradient5428);fill-opacity:1;fill-rule:evenodd;stroke:none;stroke-width:1.65350902;stroke-linecap:round;stroke-linejoin:round;stroke-miterlimit:4;stroke-dasharray:none;stroke-dashoffset:0;stroke-opacity:1;marker:none;marker-start:none;marker-mid:none;marker-end:none;enable-background:accumulate"
         inkscape:connector-curvature="0" />
      <path
         id="path5430"
         d="M 20,0 C 8.9600003,0 0,8.9599996 0,20 0,31.04 8.9599995,39.999999 20,40 31.04,40 39.999999,31.039999 40,20 40,8.9600003 31.039999,0 20,0 Z m 0,2.03125 C 29.916651,2.0312501 37.96875,10.083349 37.96875,20 37.968751,29.916651 29.916651,37.96875 20,37.96875 10.08335,37.96875 2.03125,29.916651 2.03125,20 2.03125,10.08335 10.083349,2.03125 20,2.03125 Z"
         style="color:#000000;display:inline;overflow:visible;visibility:visible;opacity:1;fill:url(#linearGradient5432);fill-opacity:1;fill-rule:evenodd;stroke:none;stroke-width:1.65350902;stroke-linecap:round;stroke-linejoin:round;stroke-miterlimit:4;stroke-dasharray:none;stroke-dashoffset:0;stroke-opacity:1;marker:none;marker-start:none;marker-mid:none;marker-end:none;enable-background:accumulate"
         inkscape:connector-curvature="0" />
      <circle
         transform="matrix(1.05234,0,0,1.05234,-3.37698,-0.06962668)"
         id="path4376"
         style="color:#000000;display:inline;overflow:visible;visibility:visible;opacity:1;fill:url(#linearGradient5436);fill-opacity:1;fill-rule:evenodd;stroke:url(#linearGradient5438);stroke-width:0.9502632;stroke-linecap:round;stroke-linejoin:round;stroke-miterlimit:4;stroke-dasharray:none;stroke-dashoffset:0;stroke-opacity:1;marker:none;marker-start:none;marker-mid:none;marker-end:none;enable-background:accumulate"
         cx="22.214285"
         cy="19.071428"
         r="17.071428" />
      <circle
         transform="matrix(1.05234,0,0,1.05234,-3.37698,-0.06962668)"
         id="path4394"
         style="color:#000000;display:inline;overflow:visible;visibility:visible;opacity:1;fill:none;fill-opacity:1;fill-rule:evenodd;stroke:url(#linearGradient4396);stroke-width:0.9502632;stroke-linecap:round;stroke-linejoin:round;stroke-miterlimit:4;stroke-dasharray:none;stroke-dashoffset:0;stroke-opacity:1;marker:none;marker-start:none;marker-mid:none;marker-end:none;enable-background:accumulate"
         cx="22.214285"
         cy="19.071428"
         r="17.071428" />
      <path
         id="text7265"
         d="m 3.340171,18.356081 3.346865,0.606456 0.127455,-0.703389 C 6.922097,17.665305 6.866271,17.206596 6.647012,16.883018 6.428103,16.557525 6.028453,16.342193 5.448059,16.237021 4.871512,16.132554 4.424598,16.194487 4.107315,16.422821 3.788464,16.648893 3.575235,17.05885 3.467626,17.652692 l -0.127455,0.703389 m -0.584052,0.495603 0.216778,-1.196339 c 0.151139,-0.83407 0.435978,-1.414657 0.854518,-1.741761 0.416624,-0.327444 0.993926,-0.424306 1.731906,-0.290588 0.741827,0.134425 1.251145,0.429176 1.527955,0.884257 0.27681,0.455087 0.339996,1.097744 0.189558,1.927971 L 7.060056,19.631563 2.756119,18.851684 M 4.220425,13.348617 4.466792,12.81054 8.443765,14.631464 8.197398,15.169541 4.220425,13.348617 m 3.544361,-4.8656388 0.492398,0.38334 c -0.26879,0.043221 -0.508991,0.12602 -0.720604,0.248397 -0.210411,0.120846 -0.393605,0.281442 -0.549582,0.481787 -0.30715,0.394539 -0.421332,0.7907888 -0.342548,1.1887528 0.077248,0.39677 0.34396,0.772725 0.80014,1.127867 0.45464,0.353946 0.884528,0.520305 1.289662,0.499077 0.403594,-0.02242 0.758966,-0.230905 1.066119,-0.625441 0.155974,-0.200348 0.266734,-0.417334 0.33228,-0.65096 0.06674,-0.235162 0.0881,-0.488334 0.06407,-0.759517 l 0.487774,0.37974 c -0.01622,0.249752 -0.06797,0.487921 -0.155269,0.714509 -0.0861,0.225051 -0.208334,0.439291 -0.366708,0.642721 C 9.755784,12.635703 9.275926,12.92301 8.722945,12.975173 8.168422,13.026138 7.614525,12.836254 7.06125,12.40552 6.506437,11.97359 6.186503,11.483182 6.101445,10.934293 6.014851,10.384212 6.174921,9.8479442 6.581655,9.3254892 6.742431,9.1189802 6.921348,8.9463922 7.118406,8.8077242 7.315125,8.6663252 7.530585,8.5580772 7.764786,8.4829782 m 1.450827,-1.7242099 2.283164,-1.5607184 0.281062,0.4111631 -1.794606,1.2267511 0.73076,1.069024 1.719629,-1.1754987 0.281062,0.4111631 -1.719629,1.1754987 0.894437,1.308466 1.838141,-1.256511 0.281061,0.411163 -2.326699,1.5904778 -2.468382,-3.6109787 m 9.285121,-1.3487449 c 0.131679,0.024973 0.266254,0.098842 0.403727,0.2216079 0.139401,0.1224993 0.286109,0.2972225 0.440124,0.5241701 l 0.760356,1.1006063 -0.629615,0.088055 -0.709591,-1.0337509 C 18.582017,6.0405866 18.41583,5.8676015 18.267176,5.7917553 18.120452,5.7156427 17.931033,5.6938166 17.698919,5.726277 L 17.0606,5.815549 17.316648,7.6463637 16.730555,7.7283317 16.124723,3.3964673 17.447784,3.211431 c 0.495179,-0.069249 0.879103,-0.017433 1.151773,0.1554466 0.272665,0.1728887 0.438214,0.468235 0.49665,0.8860398 0.03814,0.2727395 0.006,0.5079796 -0.09654,0.7057208 -0.100574,0.1974764 -0.266883,0.347938 -0.49893,0.4513854 M 16.778176,3.7961399 16.99324,5.3339082 17.730208,5.2308397 C 18.012614,5.1913463 18.216325,5.0967901 18.34134,4.9471707 18.468015,4.7953523 18.513634,4.5927451 18.478198,4.3393486 18.442758,4.0859591 18.343575,3.9055752 18.18065,3.7981966 18.019385,3.6886212 17.79755,3.6535795 17.515144,3.6930714 l -0.736968,0.1030685 m 6.674997,-0.01514 c -0.420578,-0.088018 -0.787934,-0.00128 -1.10207,0.2602278 -0.312228,0.2619099 -0.524955,0.6633693 -0.638181,1.2043795 -0.112829,0.5391024 -0.07875,0.9912187 0.102249,1.3563502 0.182904,0.3655327 0.484644,0.5923096 0.905221,0.6803313 0.420573,0.088022 0.786017,8.789e-4 1.096335,-0.2614281 C 24.128949,6.7589544 24.341476,6.3584508 24.454308,5.819349 24.567531,5.2783382 24.533649,4.8252661 24.352659,4.4601313 24.173573,4.095402 23.873745,3.8690252 23.453173,3.7810002 m 0.09842,-0.4702796 c 0.600272,0.1256347 1.037899,0.4277441 1.312883,0.9063291 0.275375,0.4766792 0.342248,1.0533889 0.200618,1.7301308 -0.14124,0.6748326 -0.433768,1.1763238 -0.877585,1.5044751 -0.443425,0.3262391 -0.965272,0.4265433 -1.565545,0.300913 C 22.019779,7.6265371 21.58004,7.3249834 21.30275,6.8479068 21.027369,6.3712308 20.960496,5.7945212 21.102132,5.117776 21.243766,4.441035 21.536294,3.9395437 21.979716,3.6133009 22.425447,3.2855535 22.949407,3.1846935 23.551597,3.3107206 m 4.079133,1.4570844 0.513046,0.2949702 -1.931909,3.360197 1.846458,1.0616 -0.248243,0.431772 -2.359503,-1.356571 2.180151,-3.7919682 m 3.716514,2.4830319 0.420324,0.4165953 -2.728493,2.7529108 1.512749,1.499331 -0.3506,0.353738 -1.933072,-1.915926 3.079092,-3.1066491 m 3.014639,3.4083011 1.357138,2.409742 -0.433958,0.2444 -1.066733,-1.894098 -1.12829,0.635439 1.022166,1.814965 -0.433958,0.2444 -1.022166,-1.814965 -1.381007,0.777767 1.092611,1.940047 -0.433958,0.2444 -1.383016,-2.455691 3.811171,-2.146406 m 0.343356,7.161403 c -0.01675,0.132974 -0.08213,0.271874 -0.196126,0.4167 -0.113612,0.146735 -0.278894,0.304003 -0.495846,0.471806 l -1.051298,0.827192 -0.126958,-0.622936 0.987722,-0.772377 c 0.258203,-0.200128 0.420541,-0.376729 0.487016,-0.529804 0.06686,-0.151165 0.07689,-0.341573 0.03009,-0.571225 l -0.128713,-0.631549 -1.811396,0.369173 -0.118182,-0.579877 4.285918,-0.873493 0.266787,1.309028 c 0.09985,0.489927 0.07196,0.876326 -0.08367,1.159199 -0.155634,0.282868 -0.440138,0.466428 -0.853511,0.550679 -0.269847,0.05499 -0.50663,0.03747 -0.710351,-0.05256 -0.203338,-0.08812 -0.36383,-0.244776 -0.481479,-0.469955 m 1.503874,-1.819394 -1.521458,0.310082 0.148605,0.729151 c 0.05694,0.279411 0.163959,0.47686 0.321048,0.592349 0.159387,0.117009 0.364435,0.149967 0.615144,0.09887 0.250702,-0.0511 0.424583,-0.161282 0.521643,-0.330557 0.09936,-0.167754 0.120564,-0.391336 0.06362,-0.670747 l -0.148605,-0.729152"
         style="font-style:normal;font-weight:normal;font-size:6px;font-family:Sans;text-align:start;text-anchor:start;display:inline;fill:#000000;fill-opacity:1;stroke:none;stroke-width:1px;stroke-linecap:butt;stroke-linejoin:miter;stroke-opacity:1;filter:url(#filter7711)"
         inkscape:connector-curvature="0" />
      <path
         id="text7127"
         d="m 3.340171,18.120209 3.346865,0.606456 0.127455,-0.703389 C 6.922097,17.429433 6.866271,16.970724 6.647012,16.647146 6.428103,16.321653 6.028453,16.106321 5.448059,16.001149 4.871512,15.896682 4.424598,15.958615 4.107315,16.186949 3.788464,16.413021 3.575235,16.822978 3.467626,17.41682 l -0.127455,0.703389 m -0.584052,0.495603 0.216778,-1.196339 c 0.151139,-0.83407 0.435978,-1.414657 0.854518,-1.741761 0.416624,-0.327444 0.993926,-0.424306 1.731906,-0.290588 0.741827,0.134425 1.251145,0.429176 1.527955,0.884257 0.27681,0.455087 0.339996,1.097744 0.189558,1.927971 L 7.060056,19.395691 2.756119,18.615812 M 4.220425,13.112745 4.466792,12.574668 8.443765,14.395592 8.197398,14.933669 4.220425,13.112745 M 7.764786,8.2471064 8.257184,8.6304462 C 7.988394,8.6736667 7.748193,8.7564656 7.53658,8.8788431 7.326169,8.9996892 7.142975,9.1602846 6.986998,9.3606297 6.679848,9.7551687 6.565666,10.151419 6.64445,10.549383 c 0.077248,0.39677 0.34396,0.772725 0.80014,1.127867 0.45464,0.353946 0.884528,0.520305 1.289662,0.499077 0.403594,-0.02242 0.758966,-0.230905 1.066119,-0.625441 0.155974,-0.200348 0.266734,-0.417334 0.33228,-0.65096 0.06674,-0.235162 0.0881,-0.488334 0.06407,-0.759517 l 0.487774,0.37974 c -0.01622,0.249752 -0.06797,0.487921 -0.155269,0.714509 -0.0861,0.225051 -0.208334,0.439291 -0.366708,0.642721 C 9.755784,12.399831 9.275926,12.687138 8.722945,12.739301 8.168422,12.790266 7.614525,12.600382 7.06125,12.169648 6.506437,11.737718 6.186503,11.24731 6.101445,10.698421 6.014851,10.14834 6.174921,9.6120721 6.581655,9.0896174 6.742431,8.8831079 6.921348,8.7105195 7.118406,8.5718517 7.315125,8.4304534 7.530585,8.3222051 7.764786,8.2471064 m 1.450827,-1.7242103 2.283164,-1.5607184 0.281062,0.4111631 -1.794606,1.2267511 0.73076,1.069024 1.719629,-1.1754987 0.281062,0.4111631 -1.719629,1.1754987 0.894437,1.308466 1.838141,-1.2565106 0.281061,0.4111631 -2.326699,1.5904775 -2.468382,-3.6109789 m 9.285121,-1.3487449 c 0.131679,0.024973 0.266254,0.098842 0.403727,0.2216079 0.139401,0.1224993 0.286109,0.2972225 0.440124,0.5241701 L 20.104941,7.0205355 19.475326,7.10859 18.765735,6.0748391 C 18.582017,5.8047144 18.41583,5.6317293 18.267176,5.5558831 18.120452,5.4797705 17.931033,5.4579444 17.698919,5.4904048 l -0.638319,0.089272 0.256048,1.8308147 -0.586093,0.081968 -0.605832,-4.3318644 1.323061,-0.1850363 c 0.495179,-0.069249 0.879103,-0.017433 1.151773,0.1554466 0.272665,0.1728887 0.438214,0.468235 0.49665,0.8860398 0.03814,0.2727395 0.006,0.5079796 -0.09654,0.7057208 -0.100574,0.1974764 -0.266883,0.347938 -0.49893,0.4513854 M 16.778176,3.5602677 16.99324,5.098036 17.730208,4.9949675 C 18.012614,4.9554741 18.216325,4.8609179 18.34134,4.7112985 18.468015,4.5594801 18.513634,4.3568729 18.478198,4.1034764 18.442758,3.8500869 18.343575,3.669703 18.18065,3.5623244 18.019385,3.452749 17.79755,3.4177073 17.515144,3.4571992 l -0.736968,0.1030685 m 6.674997,-0.01514 c -0.420578,-0.088018 -0.787934,-0.00128 -1.10207,0.2602278 -0.312228,0.2619099 -0.524955,0.6633693 -0.638181,1.2043795 -0.112829,0.5391024 -0.07875,0.9912187 0.102249,1.3563502 0.182904,0.3655327 0.484644,0.5923096 0.905221,0.6803313 0.420573,0.088021 0.786017,8.789e-4 1.096335,-0.2614281 C 24.128949,6.5230822 24.341476,6.1225786 24.454308,5.5834768 24.567531,5.042466 24.533649,4.5893939 24.352659,4.2242591 24.173573,3.8595298 23.873745,3.633153 23.453173,3.545128 m 0.09842,-0.4702796 c 0.600272,0.1256347 1.037899,0.4277441 1.312883,0.9063291 0.275375,0.4766792 0.342248,1.0533889 0.200618,1.7301308 -0.14124,0.6748326 -0.433768,1.1763238 -0.877585,1.5044751 -0.443425,0.3262391 -0.965272,0.4265433 -1.565545,0.300913 C 22.019779,7.3906649 21.58004,7.0891112 21.30275,6.6120346 21.027369,6.1353586 20.960496,5.558649 21.102132,4.8819038 21.243766,4.2051628 21.536294,3.7036715 21.979716,3.3774287 22.425447,3.0496813 22.949407,2.9488213 23.551597,3.0748484 M 27.63073,4.5319328 28.143776,4.826903 26.211867,8.1870997 28.058325,9.2487005 27.810082,9.6804718 25.450579,8.3239007 27.63073,4.5319328 m 3.716514,2.4830319 0.420324,0.4165953 -2.728493,2.752911 1.512749,1.499331 -0.3506,0.353738 -1.933072,-1.915926 3.079092,-3.1066493 m 3.014639,3.4083013 1.357138,2.409742 -0.433958,0.2444 -1.066733,-1.894098 -1.12829,0.635439 1.022166,1.814965 -0.433958,0.2444 -1.022166,-1.814965 -1.381007,0.777767 1.092611,1.940047 -0.433958,0.2444 -1.383016,-2.455691 3.811171,-2.146406 m 0.343356,7.161403 c -0.01675,0.132974 -0.08213,0.271874 -0.196126,0.4167 -0.113612,0.146735 -0.278894,0.304003 -0.495846,0.471806 l -1.051298,0.827192 -0.126958,-0.622936 0.987722,-0.772377 c 0.258203,-0.200128 0.420541,-0.376729 0.487016,-0.529804 0.06686,-0.151165 0.07689,-0.341573 0.03009,-0.571225 l -0.128713,-0.631549 -1.811396,0.369173 -0.118182,-0.579877 4.285918,-0.873493 0.266787,1.309028 c 0.09985,0.489927 0.07196,0.876326 -0.08367,1.159199 -0.155634,0.282868 -0.440138,0.466428 -0.853511,0.550679 -0.269847,0.05499 -0.50663,0.03747 -0.710351,-0.05256 -0.203338,-0.08812 -0.36383,-0.244776 -0.481479,-0.469955 m 1.503874,-1.819394 -1.521458,0.310082 0.148605,0.729151 c 0.05694,0.279411 0.163959,0.47686 0.321048,0.592349 0.159387,0.117009 0.364435,0.149967 0.615144,0.09887 0.250702,-0.0511 0.424583,-0.161282 0.521643,-0.330557 0.09936,-0.167754 0.120564,-0.391336 0.06362,-0.670747 l -0.148605,-0.729152"
         style="font-style:normal;font-weight:normal;font-size:6px;font-family:Sans;text-align:start;text-anchor:start;display:inline;fill:url(#linearGradient7563);fill-opacity:1;stroke:none;stroke-width:1px;stroke-linecap:butt;stroke-linejoin:miter;stroke-opacity:1"
         inkscape:connector-curvature="0" />
      <circle
         transform="matrix(0.7520415,0,0,0.7520415,3.2939362,5.6574945)"
         id="path7134"
         style="color:#000000;text-align:start;text-anchor:start;display:inline;overflow:visible;visibility:visible;opacity:1;fill:none;fill-opacity:1;fill-rule:evenodd;stroke:none;stroke-width:0.9502632;stroke-linecap:round;stroke-linejoin:round;stroke-miterlimit:4;stroke-dasharray:none;stroke-dashoffset:0;stroke-opacity:1;marker:none;marker-start:none;marker-mid:none;marker-end:none;enable-background:accumulate"
         cx="22.214285"
         cy="19.071428"
         r="17.071428" />
      <rect
         transform="matrix(0.265165,-0.265165,0.265165,0.265165,-3.2861729,31.754889)"
         rx="6.557622"
         y="5.25"
         x="45.25"
         height="40"
         width="40"
         id="rect3555"
         style="color:#000000;display:inline;overflow:visible;visibility:visible;opacity:0.75;fill:#000000;fill-opacity:1;fill-rule:evenodd;stroke:none;stroke-width:1.85624444;stroke-linecap:round;stroke-linejoin:round;stroke-miterlimit:4;stroke-dasharray:none;stroke-dashoffset:0;stroke-opacity:1;marker:none;marker-start:none;marker-mid:none;marker-end:none;filter:url(#filter3605);enable-background:accumulate" />
      <rect
         transform="rotate(-45)"
         rx="2.4591084"
         y="20.837534"
         x="-7.7474394"
         height="15"
         width="15"
         id="rect3239"
         style="color:#000000;display:inline;overflow:visible;visibility:visible;opacity:1;fill:url(#radialGradient3553);fill-opacity:1;fill-rule:evenodd;stroke:none;stroke-width:1.85624444;stroke-linecap:round;stroke-linejoin:round;stroke-miterlimit:4;stroke-dasharray:none;stroke-dashoffset:0;stroke-opacity:1;marker:none;marker-start:none;marker-mid:none;marker-end:none;enable-background:accumulate" />
      <path
         transform="matrix(0.265165,-0.265165,0.265165,0.265165,-2.3505109,30.819227)"
         id="rect3714"
         d="M 48.5625,2 C 44.929577,2 42,4.9295774 42,8.5625 v 26.875 C 42,39.070423 44.929577,42 48.5625,42 h 26.875 C 79.070423,42 82,39.070422 82,35.4375 V 8.5625 C 82,4.9295774 79.070422,2 75.4375,2 Z M 49,7 h 26 c 1.108,0 2,0.892 2,2 v 26 c 0,1.108 -0.892,2 -2,2 H 49 c -1.108,0 -2,-0.892 -2,-2 V 9 c 0,-1.108 0.892,-2 2,-2 z"
         style="color:#000000;display:inline;overflow:visible;visibility:visible;opacity:1;fill:url(#radialGradient3764);fill-opacity:1;fill-rule:evenodd;stroke:none;stroke-width:1.85624444;stroke-linecap:round;stroke-linejoin:round;stroke-miterlimit:4;stroke-dasharray:none;stroke-dashoffset:0;stroke-opacity:1;marker:none;marker-start:none;marker-mid:none;marker-end:none;filter:url(#filter3782);enable-background:accumulate"
         inkscape:connector-curvature="0" />
      <path
         transform="matrix(0.265165,-0.265165,0.265165,0.265165,-2.3505109,30.819227)"
         id="path3786"
         d="M 48.5625,2 C 44.929577,2 42,4.9295774 42,8.5625 v 26.875 C 42,39.070423 44.929577,42 48.5625,42 h 26.875 C 79.070423,42 82,39.070422 82,35.4375 V 8.5625 C 82,4.9295774 79.070422,2 75.4375,2 Z M 49,7 h 26 c 1.108,0 2,0.892 2,2 v 26 c 0,1.108 -0.892,2 -2,2 H 49 c -1.108,0 -2,-0.892 -2,-2 V 9 c 0,-1.108 0.892,-2 2,-2 z"
         style="color:#000000;display:inline;overflow:visible;visibility:visible;opacity:1;fill:url(#radialGradient3789);fill-opacity:1;fill-rule:evenodd;stroke:none;stroke-width:1.85624444;stroke-linecap:round;stroke-linejoin:round;stroke-miterlimit:4;stroke-dasharray:none;stroke-dashoffset:0;stroke-opacity:1;marker:none;marker-start:none;marker-mid:none;marker-end:none;filter:url(#filter3782);enable-background:accumulate"
         inkscape:connector-curvature="0" />
      <circle
         transform="matrix(0.3100329,0,0,0.3100329,17.486057,12.132182)"
         id="path3710"
         style="color:#000000;display:inline;overflow:visible;visibility:visible;opacity:1;fill:url(#radialGradient2883);fill-opacity:1;fill-rule:evenodd;stroke:none;stroke-width:2;stroke-linecap:round;stroke-linejoin:round;stroke-miterlimit:4;stroke-dasharray:none;stroke-dashoffset:0;stroke-opacity:1;marker:none;marker-start:none;marker-mid:none;marker-end:none;enable-background:accumulate"
         cx="23.91608"
         cy="26.063181"
         r="5.4429703" />
      <circle
         transform="matrix(0.3100329,0,0,0.3100329,12.580505,12.264764)"
         id="path3793"
         style="color:#000000;display:inline;overflow:visible;visibility:visible;opacity:1;fill:url(#radialGradient3874);fill-opacity:1;fill-rule:evenodd;stroke:none;stroke-width:2;stroke-linecap:round;stroke-linejoin:round;stroke-miterlimit:4;stroke-dasharray:none;stroke-dashoffset:0;stroke-opacity:1;marker:none;marker-start:none;marker-mid:none;marker-end:none;enable-background:accumulate"
         cx="23.91608"
         cy="26.063181"
         r="5.4429703" />
      <circle
         transform="matrix(0.3100329,0,0,0.3100329,12.713086,7.3592116)"
         id="path3795"
         style="color:#000000;display:inline;overflow:visible;visibility:visible;opacity:1;fill:url(#radialGradient2885);fill-opacity:1;fill-rule:evenodd;stroke:none;stroke-width:2;stroke-linecap:round;stroke-linejoin:round;stroke-miterlimit:4;stroke-dasharray:none;stroke-dashoffset:0;stroke-opacity:1;marker:none;marker-start:none;marker-mid:none;marker-end:none;enable-background:accumulate"
         cx="23.91608"
         cy="26.063181"
         r="5.4429703" />
      <circle
         transform="matrix(0.3100329,0,0,0.3100329,12.447921,17.170317)"
         id="path3803"
         style="color:#000000;display:inline;overflow:visible;visibility:visible;opacity:1;fill:url(#radialGradient2887);fill-opacity:1;fill-rule:evenodd;stroke:none;stroke-width:2;stroke-linecap:round;stroke-linejoin:round;stroke-miterlimit:4;stroke-dasharray:none;stroke-dashoffset:0;stroke-opacity:1;marker:none;marker-start:none;marker-mid:none;marker-end:none;enable-background:accumulate"
         cx="23.91608"
         cy="26.063181"
         r="5.4429703" />
      <circle
         transform="matrix(0.3100329,0,0,0.3100329,7.6749511,12.397345)"
         id="path3807"
         style="color:#000000;display:inline;overflow:visible;visibility:visible;opacity:1;fill:url(#radialGradient3815);fill-opacity:1;fill-rule:evenodd;stroke:none;stroke-width:2;stroke-linecap:round;stroke-linejoin:round;stroke-miterlimit:4;stroke-dasharray:none;stroke-dashoffset:0;stroke-opacity:1;marker:none;marker-start:none;marker-mid:none;marker-end:none;enable-background:accumulate"
         cx="23.91608"
         cy="26.063181"
         r="5.4429703" />
    </g>
  </g>
</svg>
